# xmcd CD database file
#
# Track frame offsets:
#	150
#	3554
#	36710
#	66339
#	92361
#	112853
#	136258
#	158236
#	201529
#	227200
#	272476
#	315075
#
# Disc length: 4692 seconds
#
# Revision: 2
# Processed by: cddbd v1.5.2PL0 Copyright (c) Steve Scherf et al.
# Submitted via: CDex 1.51
#
DISCID=9e12520c
DTITLE=Dolores Ashcroft Nowicki - 01 Building the Foundation
DYEAR=2006
DGENRE=New Age
TTITLE0=Introduction
TTITLE1=Why do you want to study magic?
TTITLE2=Dedication to practice
TTITLE3=Refining body and spirit
TTITLE4=The pros and cons of solo work
TTITLE5=Developing memory
TTITLE6=Understanding the elements
TTITLE7=Paths and traditions
TTITLE8=The Locus method of memory trainig
TTITLE9=Meditation and concentration
TTITLE10=Bowl and flower meditation
TTITLE11=Visionary meditation
EXTD=YEAR: 2006
EXTT0=
EXTT1=
EXTT2=
EXTT3=
EXTT4=
EXTT5=
EXTT6=
EXTT7=
EXTT8=
EXTT9=
EXTT10=
EXTT11=
PLAYORDER=
